Coordinates
version=1
nRows=9
nColumns=26
inDegrees=yes

Units are S.I. units (second, meters, Newtons, ...)
If the header above contains a line with 'inDegrees', this indicates whether rotational values are in degrees (yes) or radians (no).

endheader
time	pelvis_tilt	pelvis_list	pelvis_rotation	pelvis_tx	pelvis_ty	pelvis_tz	hip_flexion_r	hip_adduction_r	hip_rotation_r	knee_angle_r	knee_angle_r_beta	hip_flexion_l	hip_adduction_l	hip_rotation_l	knee_angle_l	knee_angle_l_beta	lumbar_extension	lumbar_bending	lumbar_rotation	ankle_angle_r	subtalar_angle_r	mtp_angle_r	ankle_angle_l	subtalar_angle_l	mtp_angle_l
      1.47500000	     -9.79005044	     -2.29920619	      3.84697846	     -0.15748925	      0.68521356	     -0.32465976	     15.48583463	      0.60956973	     -7.00237219	     18.99176882	      0.33146890	     33.18639450	    -16.66314876	    -17.45053424	     63.47769915	      1.10789485	     -0.44902745	      1.99093137	     -1.86607383	     12.52003293	     -1.27842991	      0.00000000	     -5.78835322	     -4.65201197	      0.00000000
      1.48000000	     -9.55751556	     -1.96398977	      3.64238750	     -0.15072171	      0.68565196	     -0.32461850	     14.46021359	      0.38584734	     -6.66519206	     18.70554093	      0.32647328	     33.32373694	    -16.00719477	    -18.00932779	     62.14372585	      1.08461263	     -0.74893335	      1.72463779	     -1.49460872	     12.87015314	     -1.19400747	      0.00000000	     -5.36750860	     -4.64346203	      0.00000000
      1.48500000	     -9.50286599	     -2.01916258	      3.53701813	     -0.14416881	      0.68564353	     -0.32437917	     13.83334900	      0.52097719	     -6.62445786	     18.76236781	      0.32746509	     33.90821843	    -15.77503522	    -18.28230079	     60.95884477	      1.06393255	     -0.83651948	      1.86144918	     -1.23353886	     13.15627272	     -1.24741076	      0.00000000	     -5.18807046	     -4.58763033	      0.00000000
      1.49000000	     -9.18380551	     -1.35855969	      3.21359453	     -0.13737511	      0.68613628	     -0.32445825	     12.56733880	     -0.02055072	     -6.01713839	     18.20406135	      0.31772081	     33.67081940	    -14.73563752	    -19.05792174	     59.18266965	      1.03293245	     -1.28705032	      1.26282384	     -0.77516192	     13.54688520	     -1.05902325	      0.00000000	     -4.61394474	     -4.60113661	      0.00000000
      1.49500000	     -9.19369102	     -1.45450000	      3.06329601	     -0.13093603	      0.68588239	     -0.32427048	     12.03174615	      0.15222327	     -5.95626280	     18.26918279	      0.31885739	     34.28147295	    -14.50614828	    -19.26659467	     57.80748755	      1.00893099	     -1.33215020	      1.48467769	     -0.49065198	     13.84568553	     -1.10889281	      0.00000000	     -4.39660675	     -4.49845439	      0.00000000
      1.50000000	     -9.23930853	     -0.90176943	      2.74120188	     -0.12446520	      0.68577258	     -0.32428851	     11.31116885	     -0.33610643	     -5.44063320	     17.93333434	      0.31299573	     34.50873601	    -13.51503857	    -19.83133560	     55.89423456	      0.97553843	     -1.38238540	      0.98388610	     -0.06373905	     14.17851524	     -0.96553894	      0.00000000	     -3.80517721	     -4.41061443	      0.00000000
      1.50500000	     -9.29740136	     -0.73563563	      2.49211025	     -0.11810611	      0.68541308	     -0.32427951	     10.76329825	     -0.44329995	     -5.14587913	     17.85559781	      0.31163897	     34.96335847	    -12.95957266	    -20.14938996	     54.13666735	      0.94486309	     -1.42078606	      0.95212370	      0.26031540	     14.44319376	     -0.92980157	      0.00000000	     -3.47446124	     -4.28386695	      0.00000000
      1.51000000	     -9.42678722	     -0.59548774	      2.24808727	     -0.11185269	      0.68486959	     -0.32422515	     10.32026257	     -0.52356753	     -4.86062207	     17.82349195	      0.31107862	     35.48642531	    -12.42063603	    -20.41550767	     52.28337925	      0.91251711	     -1.39444579	      0.93311083	      0.57355330	     14.72959753	     -0.90873683	      0.00000000	     -3.18627582	     -4.12176061	      0.00000000
      1.51500000	     -9.62050058	     -0.42167027	      2.00831689	     -0.10569048	      0.68420182	     -0.32423806	      9.97222473	     -0.65659506	     -4.59718477	     17.82134279	      0.31104111	     36.04506441	    -11.83820211	    -20.68599073	     50.31550007	      0.87817114	     -1.31941608	      0.88610284	      0.87249367	     15.06683692	     -0.95988669	      0.00000000	     -2.98460869	     -3.94930668	      0.00000000
